<svg xmlns="http://www.w3.org/2000/svg" width="1024" height="1024" viewBox="0 0 1024 1024"><defs><linearGradient id="g" x1="0" y1="0" x2="1" y2="1"><stop stop-color="#083385"/><stop offset="1" stop-color="#0d6fde"/></linearGradient></defs><rect x="64" y="64" width="896" height="896" rx="269" fill="url(#g)"/><path d="M464 250a28 28 0 0 1 56 0v274l82-82a28 28 0 0 1 40 40L512 612 382 482a28 28 0 1 1 40-40l42 42z" fill="white"/><path d="M365 686a28 28 0 0 1 28-28h238a28 28 0 1 1 0 56H393a28 28 0 0 1-28-28z" fill="white"/></svg>
